<mxfile host="app.diagrams.net" modified="2023-03-27T05:45:35.131Z" agent="Mozilla/5.0 (Windows NT 10.0; Win64; x64) AppleWebKit/537.36 (KHTML, like Gecko) Chrome/111.0.0.0 Safari/537.36" etag="50pQVuLnE0kOfRODNt0z" version="21.1.1" type="device">
  <diagram id="C5RBs43oDa-KdzZeNtuy" name="Page-1">
    <mxGraphModel dx="4052" dy="2457" grid="1" gridSize="10" guides="1" tooltips="1" connect="1" arrows="1" fold="1" page="1" pageScale="1" pageWidth="827" pageHeight="1169" math="0" shadow="0">
      <root>
        <mxCell id="WIyWlLk6GJQsqaUBKTNV-0" />
        <mxCell id="WIyWlLk6GJQsqaUBKTNV-1" parent="WIyWlLk6GJQsqaUBKTNV-0" />
        <mxCell id="ZJYMLbAnZgyfTpdH6xbu-0" value="Buys" style="rhombus;whiteSpace=wrap;html=1;fontSize=16;" vertex="1" parent="WIyWlLk6GJQsqaUBKTNV-1">
          <mxGeometry x="200" y="280" width="150" height="80" as="geometry" />
        </mxCell>
        <mxCell id="ZJYMLbAnZgyfTpdH6xbu-1" value="Board" style="rhombus;whiteSpace=wrap;html=1;fontSize=16;" vertex="1" parent="WIyWlLk6GJQsqaUBKTNV-1">
          <mxGeometry x="580" y="300" width="150" height="80" as="geometry" />
        </mxCell>
        <mxCell id="ZJYMLbAnZgyfTpdH6xbu-2" value="Entity" style="rounded=0;whiteSpace=wrap;html=1;fontSize=16;shadow=1;strokeColor=#3333FF;" vertex="1" parent="WIyWlLk6GJQsqaUBKTNV-1">
          <mxGeometry x="70" y="430" width="120" height="60" as="geometry" />
        </mxCell>
        <mxCell id="ZJYMLbAnZgyfTpdH6xbu-3" value="" style="endArrow=none;html=1;rounded=0;fontSize=12;startSize=8;endSize=8;curved=1;entryX=0.5;entryY=1;entryDx=0;entryDy=0;" edge="1" parent="WIyWlLk6GJQsqaUBKTNV-1" target="ZJYMLbAnZgyfTpdH6xbu-0">
          <mxGeometry width="50" height="50" relative="1" as="geometry">
            <mxPoint x="270" y="450" as="sourcePoint" />
            <mxPoint x="270" y="360" as="targetPoint" />
          </mxGeometry>
        </mxCell>
        <mxCell id="ZJYMLbAnZgyfTpdH6xbu-4" value="" style="endArrow=none;html=1;rounded=0;fontSize=12;startSize=8;endSize=8;curved=1;" edge="1" parent="WIyWlLk6GJQsqaUBKTNV-1" source="ZJYMLbAnZgyfTpdH6xbu-2">
          <mxGeometry width="50" height="50" relative="1" as="geometry">
            <mxPoint x="190" y="510" as="sourcePoint" />
            <mxPoint x="270" y="450" as="targetPoint" />
          </mxGeometry>
        </mxCell>
        <mxCell id="ZJYMLbAnZgyfTpdH6xbu-5" value="&lt;u&gt;Ticket Number&lt;/u&gt;" style="ellipse;whiteSpace=wrap;html=1;fontSize=16;" vertex="1" parent="WIyWlLk6GJQsqaUBKTNV-1">
          <mxGeometry x="-80" y="540" width="90" height="60" as="geometry" />
        </mxCell>
        <mxCell id="ZJYMLbAnZgyfTpdH6xbu-6" value="Ticket Price" style="ellipse;whiteSpace=wrap;html=1;fontSize=16;" vertex="1" parent="WIyWlLk6GJQsqaUBKTNV-1">
          <mxGeometry x="50" y="600" width="90" height="60" as="geometry" />
        </mxCell>
        <mxCell id="ZJYMLbAnZgyfTpdH6xbu-7" value="Final Price" style="ellipse;whiteSpace=wrap;html=1;fontSize=16;" vertex="1" parent="WIyWlLk6GJQsqaUBKTNV-1">
          <mxGeometry x="160" y="600" width="90" height="60" as="geometry" />
        </mxCell>
        <mxCell id="ZJYMLbAnZgyfTpdH6xbu-8" value="" style="endArrow=none;html=1;rounded=0;fontSize=12;startSize=8;endSize=8;curved=1;entryX=0.5;entryY=1;entryDx=0;entryDy=0;" edge="1" parent="WIyWlLk6GJQsqaUBKTNV-1" target="ZJYMLbAnZgyfTpdH6xbu-2">
          <mxGeometry width="50" height="50" relative="1" as="geometry">
            <mxPoint x="130" y="540" as="sourcePoint" />
            <mxPoint x="150" y="520" as="targetPoint" />
          </mxGeometry>
        </mxCell>
        <mxCell id="ZJYMLbAnZgyfTpdH6xbu-9" value="" style="endArrow=none;html=1;rounded=0;fontSize=12;startSize=8;endSize=8;curved=1;" edge="1" parent="WIyWlLk6GJQsqaUBKTNV-1">
          <mxGeometry width="50" height="50" relative="1" as="geometry">
            <mxPoint x="130" y="540" as="sourcePoint" />
            <mxPoint x="200" y="540" as="targetPoint" />
          </mxGeometry>
        </mxCell>
        <mxCell id="ZJYMLbAnZgyfTpdH6xbu-10" value="" style="endArrow=none;html=1;rounded=0;fontSize=12;startSize=8;endSize=8;curved=1;exitX=0.5;exitY=0;exitDx=0;exitDy=0;" edge="1" parent="WIyWlLk6GJQsqaUBKTNV-1" source="ZJYMLbAnZgyfTpdH6xbu-6">
          <mxGeometry width="50" height="50" relative="1" as="geometry">
            <mxPoint x="90" y="580" as="sourcePoint" />
            <mxPoint x="100" y="520" as="targetPoint" />
          </mxGeometry>
        </mxCell>
        <mxCell id="ZJYMLbAnZgyfTpdH6xbu-11" value="" style="endArrow=none;html=1;rounded=0;fontSize=12;startSize=8;endSize=8;curved=1;" edge="1" parent="WIyWlLk6GJQsqaUBKTNV-1">
          <mxGeometry width="50" height="50" relative="1" as="geometry">
            <mxPoint x="200" y="540" as="sourcePoint" />
            <mxPoint x="200" y="600" as="targetPoint" />
          </mxGeometry>
        </mxCell>
        <mxCell id="ZJYMLbAnZgyfTpdH6xbu-12" value="" style="endArrow=none;html=1;rounded=0;fontSize=12;startSize=8;endSize=8;curved=1;" edge="1" parent="WIyWlLk6GJQsqaUBKTNV-1">
          <mxGeometry width="50" height="50" relative="1" as="geometry">
            <mxPoint x="100" y="520" as="sourcePoint" />
            <mxPoint x="130" y="520" as="targetPoint" />
          </mxGeometry>
        </mxCell>
        <mxCell id="ZJYMLbAnZgyfTpdH6xbu-13" value="" style="endArrow=none;html=1;rounded=0;fontSize=12;startSize=8;endSize=8;entryX=0;entryY=0.5;entryDx=0;entryDy=0;exitX=1;exitY=0.5;exitDx=0;exitDy=0;edgeStyle=elbowEdgeStyle;" edge="1" parent="WIyWlLk6GJQsqaUBKTNV-1" source="ZJYMLbAnZgyfTpdH6xbu-5" target="ZJYMLbAnZgyfTpdH6xbu-2">
          <mxGeometry width="50" height="50" relative="1" as="geometry">
            <mxPoint x="10" y="530" as="sourcePoint" />
            <mxPoint x="60" y="480" as="targetPoint" />
          </mxGeometry>
        </mxCell>
        <mxCell id="ZJYMLbAnZgyfTpdH6xbu-15" value="Passenger" style="rounded=0;whiteSpace=wrap;html=1;fontSize=16;shadow=1;strokeColor=#3333FF;" vertex="1" parent="WIyWlLk6GJQsqaUBKTNV-1">
          <mxGeometry x="-120" y="90" width="120" height="60" as="geometry" />
        </mxCell>
        <mxCell id="ZJYMLbAnZgyfTpdH6xbu-16" value="Age" style="ellipse;whiteSpace=wrap;html=1;fontSize=16;" vertex="1" parent="WIyWlLk6GJQsqaUBKTNV-1">
          <mxGeometry x="-250" y="260" width="90" height="60" as="geometry" />
        </mxCell>
        <mxCell id="ZJYMLbAnZgyfTpdH6xbu-17" value="Card" style="ellipse;whiteSpace=wrap;html=1;fontSize=16;" vertex="1" parent="WIyWlLk6GJQsqaUBKTNV-1">
          <mxGeometry x="-220" y="-70" width="90" height="60" as="geometry" />
        </mxCell>
        <mxCell id="ZJYMLbAnZgyfTpdH6xbu-18" value="Address" style="ellipse;whiteSpace=wrap;html=1;fontSize=16;" vertex="1" parent="WIyWlLk6GJQsqaUBKTNV-1">
          <mxGeometry x="-370" y="170" width="90" height="60" as="geometry" />
        </mxCell>
        <mxCell id="ZJYMLbAnZgyfTpdH6xbu-19" value="Gender" style="ellipse;whiteSpace=wrap;html=1;fontSize=16;" vertex="1" parent="WIyWlLk6GJQsqaUBKTNV-1">
          <mxGeometry x="-105" y="260" width="90" height="60" as="geometry" />
        </mxCell>
        <mxCell id="ZJYMLbAnZgyfTpdH6xbu-20" value="&lt;font style=&quot;font-size: 14px;&quot;&gt;&lt;u&gt;Passenger_ID&lt;/u&gt;&lt;/font&gt;" style="ellipse;whiteSpace=wrap;html=1;fontSize=16;" vertex="1" parent="WIyWlLk6GJQsqaUBKTNV-1">
          <mxGeometry x="-380" y="20" width="90" height="60" as="geometry" />
        </mxCell>
        <mxCell id="ZJYMLbAnZgyfTpdH6xbu-21" value="Name" style="ellipse;whiteSpace=wrap;html=1;fontSize=16;" vertex="1" parent="WIyWlLk6GJQsqaUBKTNV-1">
          <mxGeometry x="30" y="-70" width="90" height="60" as="geometry" />
        </mxCell>
        <mxCell id="ZJYMLbAnZgyfTpdH6xbu-23" value="" style="endArrow=none;html=1;rounded=0;exitX=0.5;exitY=0;exitDx=0;exitDy=0;entryX=0.25;entryY=1;entryDx=0;entryDy=0;edgeStyle=elbowEdgeStyle;" edge="1" parent="WIyWlLk6GJQsqaUBKTNV-1" source="ZJYMLbAnZgyfTpdH6xbu-16" target="ZJYMLbAnZgyfTpdH6xbu-15">
          <mxGeometry width="50" height="50" relative="1" as="geometry">
            <mxPoint x="-80" y="210" as="sourcePoint" />
            <mxPoint x="-30" y="160" as="targetPoint" />
          </mxGeometry>
        </mxCell>
        <mxCell id="ZJYMLbAnZgyfTpdH6xbu-24" value="" style="endArrow=none;html=1;rounded=0;exitX=0.5;exitY=0;exitDx=0;exitDy=0;entryX=0.5;entryY=1;entryDx=0;entryDy=0;edgeStyle=elbowEdgeStyle;" edge="1" parent="WIyWlLk6GJQsqaUBKTNV-1" source="ZJYMLbAnZgyfTpdH6xbu-19" target="ZJYMLbAnZgyfTpdH6xbu-15">
          <mxGeometry width="50" height="50" relative="1" as="geometry">
            <mxPoint x="60" y="200" as="sourcePoint" />
            <mxPoint x="110" y="150" as="targetPoint" />
          </mxGeometry>
        </mxCell>
        <mxCell id="ZJYMLbAnZgyfTpdH6xbu-25" value="" style="endArrow=none;html=1;rounded=0;exitX=0.5;exitY=1;exitDx=0;exitDy=0;entryX=0.75;entryY=0;entryDx=0;entryDy=0;edgeStyle=elbowEdgeStyle;elbow=vertical;" edge="1" parent="WIyWlLk6GJQsqaUBKTNV-1" source="ZJYMLbAnZgyfTpdH6xbu-21" target="ZJYMLbAnZgyfTpdH6xbu-15">
          <mxGeometry width="50" height="50" relative="1" as="geometry">
            <mxPoint x="120" y="70" as="sourcePoint" />
            <mxPoint x="170" y="20" as="targetPoint" />
          </mxGeometry>
        </mxCell>
        <mxCell id="ZJYMLbAnZgyfTpdH6xbu-26" value="" style="endArrow=none;html=1;rounded=0;exitX=0.5;exitY=1;exitDx=0;exitDy=0;entryX=0.25;entryY=0;entryDx=0;entryDy=0;edgeStyle=elbowEdgeStyle;elbow=vertical;" edge="1" parent="WIyWlLk6GJQsqaUBKTNV-1" source="ZJYMLbAnZgyfTpdH6xbu-17" target="ZJYMLbAnZgyfTpdH6xbu-15">
          <mxGeometry width="50" height="50" relative="1" as="geometry">
            <mxPoint x="80" y="90" as="sourcePoint" />
            <mxPoint x="130" y="40" as="targetPoint" />
          </mxGeometry>
        </mxCell>
        <mxCell id="ZJYMLbAnZgyfTpdH6xbu-27" value="" style="endArrow=none;html=1;rounded=0;entryX=1;entryY=0.5;entryDx=0;entryDy=0;exitX=0;exitY=0.75;exitDx=0;exitDy=0;edgeStyle=elbowEdgeStyle;" edge="1" parent="WIyWlLk6GJQsqaUBKTNV-1" source="ZJYMLbAnZgyfTpdH6xbu-15" target="ZJYMLbAnZgyfTpdH6xbu-18">
          <mxGeometry width="50" height="50" relative="1" as="geometry">
            <mxPoint x="-260" y="310" as="sourcePoint" />
            <mxPoint x="-210" y="260" as="targetPoint" />
          </mxGeometry>
        </mxCell>
        <mxCell id="ZJYMLbAnZgyfTpdH6xbu-28" value="" style="endArrow=none;html=1;rounded=0;exitX=1;exitY=0.5;exitDx=0;exitDy=0;entryX=0;entryY=0.25;entryDx=0;entryDy=0;edgeStyle=elbowEdgeStyle;elbow=vertical;" edge="1" parent="WIyWlLk6GJQsqaUBKTNV-1" source="ZJYMLbAnZgyfTpdH6xbu-20" target="ZJYMLbAnZgyfTpdH6xbu-15">
          <mxGeometry width="50" height="50" relative="1" as="geometry">
            <mxPoint x="-170" y="140" as="sourcePoint" />
            <mxPoint x="-120" y="90" as="targetPoint" />
          </mxGeometry>
        </mxCell>
        <mxCell id="ZJYMLbAnZgyfTpdH6xbu-29" value="Contact" style="ellipse;whiteSpace=wrap;html=1;fontSize=16;" vertex="1" parent="WIyWlLk6GJQsqaUBKTNV-1">
          <mxGeometry x="10" y="240" width="90" height="60" as="geometry" />
        </mxCell>
        <mxCell id="ZJYMLbAnZgyfTpdH6xbu-30" value="" style="endArrow=none;html=1;rounded=0;exitX=0.5;exitY=0;exitDx=0;exitDy=0;entryX=0.75;entryY=1;entryDx=0;entryDy=0;edgeStyle=elbowEdgeStyle;elbow=vertical;" edge="1" parent="WIyWlLk6GJQsqaUBKTNV-1" source="ZJYMLbAnZgyfTpdH6xbu-29" target="ZJYMLbAnZgyfTpdH6xbu-15">
          <mxGeometry width="50" height="50" relative="1" as="geometry">
            <mxPoint x="100" y="110" as="sourcePoint" />
            <mxPoint x="150" y="60" as="targetPoint" />
          </mxGeometry>
        </mxCell>
        <mxCell id="ZJYMLbAnZgyfTpdH6xbu-31" value="" style="endArrow=none;html=1;rounded=0;exitX=0.5;exitY=0;exitDx=0;exitDy=0;" edge="1" parent="WIyWlLk6GJQsqaUBKTNV-1" source="ZJYMLbAnZgyfTpdH6xbu-0">
          <mxGeometry width="50" height="50" relative="1" as="geometry">
            <mxPoint x="270" y="210" as="sourcePoint" />
            <mxPoint x="280" y="130" as="targetPoint" />
          </mxGeometry>
        </mxCell>
        <mxCell id="ZJYMLbAnZgyfTpdH6xbu-32" value="" style="endArrow=none;html=1;rounded=0;exitX=1;exitY=0.75;exitDx=0;exitDy=0;" edge="1" parent="WIyWlLk6GJQsqaUBKTNV-1" source="ZJYMLbAnZgyfTpdH6xbu-15">
          <mxGeometry width="50" height="50" relative="1" as="geometry">
            <mxPoint x="120" y="130" as="sourcePoint" />
            <mxPoint x="280" y="130" as="targetPoint" />
          </mxGeometry>
        </mxCell>
        <mxCell id="ZJYMLbAnZgyfTpdH6xbu-35" value="" style="endArrow=none;html=1;rounded=0;exitX=0.5;exitY=0;exitDx=0;exitDy=0;" edge="1" parent="WIyWlLk6GJQsqaUBKTNV-1" source="ZJYMLbAnZgyfTpdH6xbu-1">
          <mxGeometry width="50" height="50" relative="1" as="geometry">
            <mxPoint x="630" y="120" as="sourcePoint" />
            <mxPoint x="660" y="90" as="targetPoint" />
          </mxGeometry>
        </mxCell>
        <mxCell id="ZJYMLbAnZgyfTpdH6xbu-36" value="" style="endArrow=none;html=1;rounded=0;exitX=1;exitY=0.25;exitDx=0;exitDy=0;" edge="1" parent="WIyWlLk6GJQsqaUBKTNV-1" source="ZJYMLbAnZgyfTpdH6xbu-15">
          <mxGeometry width="50" height="50" relative="1" as="geometry">
            <mxPoint x="550" y="150" as="sourcePoint" />
            <mxPoint x="660" y="90" as="targetPoint" />
          </mxGeometry>
        </mxCell>
        <mxCell id="ZJYMLbAnZgyfTpdH6xbu-37" value="Train_Info" style="rounded=0;whiteSpace=wrap;html=1;fontSize=16;shadow=1;strokeColor=#3333FF;" vertex="1" parent="WIyWlLk6GJQsqaUBKTNV-1">
          <mxGeometry x="870" y="60" width="120" height="60" as="geometry" />
        </mxCell>
        <mxCell id="ZJYMLbAnZgyfTpdH6xbu-38" value="Total Seats" style="ellipse;whiteSpace=wrap;html=1;fontSize=16;" vertex="1" parent="WIyWlLk6GJQsqaUBKTNV-1">
          <mxGeometry x="690" y="-70" width="90" height="60" as="geometry" />
        </mxCell>
        <mxCell id="ZJYMLbAnZgyfTpdH6xbu-39" value="Available Seats" style="ellipse;whiteSpace=wrap;html=1;fontSize=16;" vertex="1" parent="WIyWlLk6GJQsqaUBKTNV-1">
          <mxGeometry x="885" y="-100" width="90" height="60" as="geometry" />
        </mxCell>
        <mxCell id="ZJYMLbAnZgyfTpdH6xbu-40" value="Seat Number" style="ellipse;whiteSpace=wrap;html=1;fontSize=16;" vertex="1" parent="WIyWlLk6GJQsqaUBKTNV-1">
          <mxGeometry x="1020" y="-90" width="90" height="60" as="geometry" />
        </mxCell>
        <mxCell id="ZJYMLbAnZgyfTpdH6xbu-41" value="Arrival Time" style="ellipse;whiteSpace=wrap;html=1;fontSize=16;" vertex="1" parent="WIyWlLk6GJQsqaUBKTNV-1">
          <mxGeometry x="1120" y="40" width="90" height="60" as="geometry" />
        </mxCell>
        <mxCell id="ZJYMLbAnZgyfTpdH6xbu-42" value="Depature Dates" style="ellipse;whiteSpace=wrap;html=1;fontSize=16;" vertex="1" parent="WIyWlLk6GJQsqaUBKTNV-1">
          <mxGeometry x="690" y="30" width="90" height="60" as="geometry" />
        </mxCell>
        <mxCell id="ZJYMLbAnZgyfTpdH6xbu-43" value="Depature Time" style="ellipse;whiteSpace=wrap;html=1;fontSize=16;" vertex="1" parent="WIyWlLk6GJQsqaUBKTNV-1">
          <mxGeometry x="720" y="110" width="90" height="60" as="geometry" />
        </mxCell>
        <mxCell id="ZJYMLbAnZgyfTpdH6xbu-44" value="Depature Location" style="ellipse;whiteSpace=wrap;html=1;fontSize=16;" vertex="1" parent="WIyWlLk6GJQsqaUBKTNV-1">
          <mxGeometry x="827" y="300" width="90" height="60" as="geometry" />
        </mxCell>
        <mxCell id="ZJYMLbAnZgyfTpdH6xbu-45" value="Train Number" style="ellipse;whiteSpace=wrap;html=1;fontSize=16;" vertex="1" parent="WIyWlLk6GJQsqaUBKTNV-1">
          <mxGeometry x="920" y="410" width="90" height="60" as="geometry" />
        </mxCell>
        <mxCell id="ZJYMLbAnZgyfTpdH6xbu-50" value="" style="endArrow=none;html=1;rounded=0;exitX=0.5;exitY=0;exitDx=0;exitDy=0;entryX=0.5;entryY=1;entryDx=0;entryDy=0;edgeStyle=elbowEdgeStyle;elbow=vertical;" edge="1" parent="WIyWlLk6GJQsqaUBKTNV-1" source="ZJYMLbAnZgyfTpdH6xbu-45" target="ZJYMLbAnZgyfTpdH6xbu-37">
          <mxGeometry width="50" height="50" relative="1" as="geometry">
            <mxPoint x="1020" y="210" as="sourcePoint" />
            <mxPoint x="1070" y="160" as="targetPoint" />
          </mxGeometry>
        </mxCell>
        <mxCell id="ZJYMLbAnZgyfTpdH6xbu-51" value="" style="endArrow=none;html=1;rounded=0;exitX=1;exitY=0.5;exitDx=0;exitDy=0;entryX=0.25;entryY=1;entryDx=0;entryDy=0;edgeStyle=elbowEdgeStyle;elbow=vertical;" edge="1" parent="WIyWlLk6GJQsqaUBKTNV-1" source="ZJYMLbAnZgyfTpdH6xbu-44" target="ZJYMLbAnZgyfTpdH6xbu-37">
          <mxGeometry width="50" height="50" relative="1" as="geometry">
            <mxPoint x="895" y="210" as="sourcePoint" />
            <mxPoint x="940" y="130" as="targetPoint" />
          </mxGeometry>
        </mxCell>
        <mxCell id="ZJYMLbAnZgyfTpdH6xbu-52" value="" style="endArrow=none;html=1;rounded=0;exitX=1;exitY=0.5;exitDx=0;exitDy=0;edgeStyle=elbowEdgeStyle;" edge="1" parent="WIyWlLk6GJQsqaUBKTNV-1" source="ZJYMLbAnZgyfTpdH6xbu-43">
          <mxGeometry width="50" height="50" relative="1" as="geometry">
            <mxPoint x="905" y="220" as="sourcePoint" />
            <mxPoint x="870" y="100" as="targetPoint" />
          </mxGeometry>
        </mxCell>
        <mxCell id="ZJYMLbAnZgyfTpdH6xbu-53" value="" style="endArrow=none;html=1;rounded=0;exitX=1;exitY=0.5;exitDx=0;exitDy=0;entryX=0;entryY=0.5;entryDx=0;entryDy=0;edgeStyle=elbowEdgeStyle;" edge="1" parent="WIyWlLk6GJQsqaUBKTNV-1" source="ZJYMLbAnZgyfTpdH6xbu-42" target="ZJYMLbAnZgyfTpdH6xbu-37">
          <mxGeometry width="50" height="50" relative="1" as="geometry">
            <mxPoint x="915" y="230" as="sourcePoint" />
            <mxPoint x="960" y="150" as="targetPoint" />
          </mxGeometry>
        </mxCell>
        <mxCell id="ZJYMLbAnZgyfTpdH6xbu-54" value="" style="endArrow=none;html=1;rounded=0;exitX=1;exitY=0.5;exitDx=0;exitDy=0;entryX=0.25;entryY=0;entryDx=0;entryDy=0;edgeStyle=elbowEdgeStyle;elbow=vertical;" edge="1" parent="WIyWlLk6GJQsqaUBKTNV-1" source="ZJYMLbAnZgyfTpdH6xbu-38" target="ZJYMLbAnZgyfTpdH6xbu-37">
          <mxGeometry width="50" height="50" relative="1" as="geometry">
            <mxPoint x="840" y="40" as="sourcePoint" />
            <mxPoint x="890" y="-10" as="targetPoint" />
          </mxGeometry>
        </mxCell>
        <mxCell id="ZJYMLbAnZgyfTpdH6xbu-56" value="" style="endArrow=none;html=1;rounded=0;exitX=0;exitY=0.5;exitDx=0;exitDy=0;entryX=1.003;entryY=0.125;entryDx=0;entryDy=0;edgeStyle=elbowEdgeStyle;elbow=vertical;entryPerimeter=0;" edge="1" parent="WIyWlLk6GJQsqaUBKTNV-1" source="ZJYMLbAnZgyfTpdH6xbu-41" target="ZJYMLbAnZgyfTpdH6xbu-37">
          <mxGeometry width="50" height="50" relative="1" as="geometry">
            <mxPoint x="940" y="210" as="sourcePoint" />
            <mxPoint x="940" y="130" as="targetPoint" />
          </mxGeometry>
        </mxCell>
        <mxCell id="ZJYMLbAnZgyfTpdH6xbu-57" value="" style="endArrow=none;html=1;rounded=0;entryX=0.5;entryY=1;entryDx=0;entryDy=0;elbow=vertical;" edge="1" parent="WIyWlLk6GJQsqaUBKTNV-1" target="ZJYMLbAnZgyfTpdH6xbu-40">
          <mxGeometry width="50" height="50" relative="1" as="geometry">
            <mxPoint x="1070" y="70" as="sourcePoint" />
            <mxPoint x="950" y="140" as="targetPoint" />
          </mxGeometry>
        </mxCell>
        <mxCell id="ZJYMLbAnZgyfTpdH6xbu-58" value="" style="endArrow=none;html=1;rounded=0;exitX=0.5;exitY=1;exitDx=0;exitDy=0;entryX=0.5;entryY=0;entryDx=0;entryDy=0;edgeStyle=elbowEdgeStyle;elbow=vertical;" edge="1" parent="WIyWlLk6GJQsqaUBKTNV-1" source="ZJYMLbAnZgyfTpdH6xbu-39" target="ZJYMLbAnZgyfTpdH6xbu-37">
          <mxGeometry width="50" height="50" relative="1" as="geometry">
            <mxPoint x="960" y="230" as="sourcePoint" />
            <mxPoint x="960" y="150" as="targetPoint" />
            <Array as="points">
              <mxPoint x="930" y="30" />
            </Array>
          </mxGeometry>
        </mxCell>
        <mxCell id="ZJYMLbAnZgyfTpdH6xbu-60" value="Source" style="ellipse;whiteSpace=wrap;html=1;fontSize=16;" vertex="1" parent="WIyWlLk6GJQsqaUBKTNV-1">
          <mxGeometry x="1151" y="170" width="90" height="60" as="geometry" />
        </mxCell>
        <mxCell id="ZJYMLbAnZgyfTpdH6xbu-61" value="" style="endArrow=none;html=1;rounded=0;exitX=0;exitY=0.5;exitDx=0;exitDy=0;edgeStyle=elbowEdgeStyle;entryX=1;entryY=0.75;entryDx=0;entryDy=0;" edge="1" parent="WIyWlLk6GJQsqaUBKTNV-1" source="ZJYMLbAnZgyfTpdH6xbu-60" target="ZJYMLbAnZgyfTpdH6xbu-37">
          <mxGeometry width="50" height="50" relative="1" as="geometry">
            <mxPoint x="940" y="210" as="sourcePoint" />
            <mxPoint x="960" y="120" as="targetPoint" />
          </mxGeometry>
        </mxCell>
        <mxCell id="ZJYMLbAnZgyfTpdH6xbu-63" value="Destination" style="ellipse;whiteSpace=wrap;html=1;fontSize=16;" vertex="1" parent="WIyWlLk6GJQsqaUBKTNV-1">
          <mxGeometry x="1196" y="100" width="90" height="60" as="geometry" />
        </mxCell>
        <mxCell id="ZJYMLbAnZgyfTpdH6xbu-64" value="" style="endArrow=none;html=1;rounded=0;entryX=1;entryY=0.5;entryDx=0;entryDy=0;edgeStyle=elbowEdgeStyle;exitX=0;exitY=0.5;exitDx=0;exitDy=0;" edge="1" parent="WIyWlLk6GJQsqaUBKTNV-1" source="ZJYMLbAnZgyfTpdH6xbu-63" target="ZJYMLbAnZgyfTpdH6xbu-37">
          <mxGeometry width="50" height="50" relative="1" as="geometry">
            <mxPoint x="1150" y="150" as="sourcePoint" />
            <mxPoint x="940" y="130" as="targetPoint" />
          </mxGeometry>
        </mxCell>
        <mxCell id="ZJYMLbAnZgyfTpdH6xbu-65" value="" style="endArrow=none;html=1;rounded=0;edgeStyle=elbowEdgeStyle;elbow=vertical;exitX=1;exitY=0.5;exitDx=0;exitDy=0;" edge="1" parent="WIyWlLk6GJQsqaUBKTNV-1" source="ZJYMLbAnZgyfTpdH6xbu-1">
          <mxGeometry width="50" height="50" relative="1" as="geometry">
            <mxPoint x="910" y="410" as="sourcePoint" />
            <mxPoint x="884" y="120" as="targetPoint" />
          </mxGeometry>
        </mxCell>
        <mxCell id="ZJYMLbAnZgyfTpdH6xbu-66" style="edgeStyle=orthogonalEdgeStyle;rounded=0;orthogonalLoop=1;jettySize=auto;html=1;exitX=0.5;exitY=1;exitDx=0;exitDy=0;" edge="1" parent="WIyWlLk6GJQsqaUBKTNV-1" source="ZJYMLbAnZgyfTpdH6xbu-44" target="ZJYMLbAnZgyfTpdH6xbu-44">
          <mxGeometry relative="1" as="geometry" />
        </mxCell>
        <mxCell id="ZJYMLbAnZgyfTpdH6xbu-67" value="Travel Through" style="rhombus;whiteSpace=wrap;html=1;fontSize=16;" vertex="1" parent="WIyWlLk6GJQsqaUBKTNV-1">
          <mxGeometry x="1090" y="540" width="150" height="80" as="geometry" />
        </mxCell>
        <mxCell id="ZJYMLbAnZgyfTpdH6xbu-69" value="" style="endArrow=none;html=1;rounded=0;exitX=0;exitY=0.5;exitDx=0;exitDy=0;entryX=0.75;entryY=1;entryDx=0;entryDy=0;edgeStyle=elbowEdgeStyle;" edge="1" parent="WIyWlLk6GJQsqaUBKTNV-1" source="ZJYMLbAnZgyfTpdH6xbu-67" target="ZJYMLbAnZgyfTpdH6xbu-37">
          <mxGeometry width="50" height="50" relative="1" as="geometry">
            <mxPoint x="1160" y="360" as="sourcePoint" />
            <mxPoint x="1210" y="310" as="targetPoint" />
          </mxGeometry>
        </mxCell>
        <mxCell id="ZJYMLbAnZgyfTpdH6xbu-70" value="Route" style="rounded=0;whiteSpace=wrap;html=1;fontSize=16;shadow=1;strokeColor=#3333FF;" vertex="1" parent="WIyWlLk6GJQsqaUBKTNV-1">
          <mxGeometry x="1105" y="670" width="120" height="60" as="geometry" />
        </mxCell>
        <mxCell id="ZJYMLbAnZgyfTpdH6xbu-71" value="&lt;u&gt;Route_ID&lt;/u&gt;" style="ellipse;whiteSpace=wrap;html=1;fontSize=16;" vertex="1" parent="WIyWlLk6GJQsqaUBKTNV-1">
          <mxGeometry x="950" y="670" width="90" height="60" as="geometry" />
        </mxCell>
        <mxCell id="ZJYMLbAnZgyfTpdH6xbu-73" value="Pickup Point" style="ellipse;whiteSpace=wrap;html=1;fontSize=16;" vertex="1" parent="WIyWlLk6GJQsqaUBKTNV-1">
          <mxGeometry x="950" y="800" width="90" height="60" as="geometry" />
        </mxCell>
        <mxCell id="ZJYMLbAnZgyfTpdH6xbu-74" value="Route Point" style="ellipse;whiteSpace=wrap;html=1;fontSize=16;" vertex="1" parent="WIyWlLk6GJQsqaUBKTNV-1">
          <mxGeometry x="1120" y="840" width="90" height="60" as="geometry" />
        </mxCell>
        <mxCell id="ZJYMLbAnZgyfTpdH6xbu-75" value="" style="endArrow=none;html=1;rounded=0;exitX=1;exitY=0.5;exitDx=0;exitDy=0;entryX=0;entryY=0.5;entryDx=0;entryDy=0;" edge="1" parent="WIyWlLk6GJQsqaUBKTNV-1" source="ZJYMLbAnZgyfTpdH6xbu-71" target="ZJYMLbAnZgyfTpdH6xbu-70">
          <mxGeometry width="50" height="50" relative="1" as="geometry">
            <mxPoint x="1130" y="810" as="sourcePoint" />
            <mxPoint x="1180" y="760" as="targetPoint" />
          </mxGeometry>
        </mxCell>
        <mxCell id="ZJYMLbAnZgyfTpdH6xbu-76" value="" style="endArrow=none;html=1;rounded=0;exitX=1;exitY=0.5;exitDx=0;exitDy=0;entryX=0.25;entryY=1;entryDx=0;entryDy=0;edgeStyle=elbowEdgeStyle;elbow=vertical;" edge="1" parent="WIyWlLk6GJQsqaUBKTNV-1" source="ZJYMLbAnZgyfTpdH6xbu-73" target="ZJYMLbAnZgyfTpdH6xbu-70">
          <mxGeometry width="50" height="50" relative="1" as="geometry">
            <mxPoint x="1150" y="820" as="sourcePoint" />
            <mxPoint x="1200" y="770" as="targetPoint" />
          </mxGeometry>
        </mxCell>
        <mxCell id="ZJYMLbAnZgyfTpdH6xbu-77" value="" style="endArrow=none;html=1;rounded=0;exitX=0.5;exitY=0;exitDx=0;exitDy=0;entryX=0.5;entryY=1;entryDx=0;entryDy=0;" edge="1" parent="WIyWlLk6GJQsqaUBKTNV-1" source="ZJYMLbAnZgyfTpdH6xbu-74" target="ZJYMLbAnZgyfTpdH6xbu-70">
          <mxGeometry width="50" height="50" relative="1" as="geometry">
            <mxPoint x="1190" y="800" as="sourcePoint" />
            <mxPoint x="1240" y="750" as="targetPoint" />
          </mxGeometry>
        </mxCell>
        <mxCell id="ZJYMLbAnZgyfTpdH6xbu-78" value="" style="endArrow=none;html=1;rounded=0;exitX=0.5;exitY=0;exitDx=0;exitDy=0;entryX=0.5;entryY=1;entryDx=0;entryDy=0;" edge="1" parent="WIyWlLk6GJQsqaUBKTNV-1" source="ZJYMLbAnZgyfTpdH6xbu-70" target="ZJYMLbAnZgyfTpdH6xbu-67">
          <mxGeometry width="50" height="50" relative="1" as="geometry">
            <mxPoint x="1380" y="550" as="sourcePoint" />
            <mxPoint x="1430" y="500" as="targetPoint" />
          </mxGeometry>
        </mxCell>
      </root>
    </mxGraphModel>
  </diagram>
</mxfile>
